<svg viewBox="0 0 16 16" xmlns="http://www.w3.org/2000/svg">
    <path d="
        M4, 3
        a0.5, 0.75, 0, 1, 0, 0, -1.6
    " fill="none" stroke="#111" stroke-width="0.5" />
    <path d="
        M5.333333, 3
        a0.5, 0.75, 0, 1, 0, 0, -1.6
    " fill="none" stroke="#111" stroke-width="0.5" />
    <path d="
        M6.666667, 3
        a0.5, 0.75, 0, 1, 0, 0, -1.6
    " fill="none" stroke="#111" stroke-width="0.5" />
    <path d="
        M8, 3
        a0.5, 0.75, 0, 1, 0, 0, -1.6
    " fill="none" stroke="#111" stroke-width="0.5" />
    <path d="
        M9.333333, 3
        a0.5, 0.75, 0, 1, 0, 0, -1.6
    " fill="none" stroke="#111" stroke-width="0.5" />
    <path d="
        M10.666667, 3
        a0.5, 0.75, 0, 1, 0, 0, -1.6
    " fill="none" stroke="#111" stroke-width="0.5" />
    <path d="
        M12, 3
        a0.5, 0.75, 0, 1, 0, 0, -1.6
    " fill="none" stroke="#111" stroke-width="0.5" />
    <rect x="2.5" y="2" width="11" height="13" fill="#0a0a8b" stroke="#2b37c8" stroke-width="0.5" />
    <path d="
        M4, 3
        a0.5, 0.75, 0, 1, 1, 0, -1.6
    " fill="none" stroke="#111" stroke-width="0.5" />
    <path d="
        M5.333333, 3
        a0.5, 0.75, 0, 1, 1, 0, -1.6
    " fill="none" stroke="#111" stroke-width="0.5" />
    <path d="
        M6.666667, 3
        a0.5, 0.75, 0, 1, 1, 0, -1.6
    " fill="none" stroke="#111" stroke-width="0.5" />
    <path d="
        M8, 3
        a0.5, 0.75, 0, 1, 1, 0, -1.6
    " fill="none" stroke="#111" stroke-width="0.5" />
    <path d="
        M9.333333, 3
        a0.5, 0.75, 0, 1, 1, 0, -1.6
    " fill="none" stroke="#111" stroke-width="0.5" />
    <path d="
        M10.666667, 3
        a0.5, 0.75, 0, 1, 1, 0, -1.6
    " fill="none" stroke="#111" stroke-width="0.5" />
    <path d="
        M12, 3
        a0.5, 0.75, 0, 1, 1, 0, -1.6
    " fill="none" stroke="#111" stroke-width="0.5" />
    <text x="8" y="8" font-size="4.5" dominant-baseline="middle" text-anchor="middle" fill="#fff" font-family="Arial Black, Arial, Helvetica, sans-serif" font-weight="bold" textLength="10" lengthAdjust="spacingAndGlyphs">2898</text>
</svg>